<svg xmlns="http://www.w3.org/2000/svg" fill="none" viewBox="0 0 128 160" x="0px" y="0px"><path fill="#000" fill-rule="evenodd" d="M80.105 33.36a20.12 20.12 0 0 1 6-.91h1A4.895 4.895 0 0 1 92 37.344c0 10.393-7.886 18.944-18 19.997v3.109c0 .345-.044.68-.126 1H79c11.791 0 21.416 9.276 21.974 20.93 1.842 1.866 3.026 4.441 3.026 7.457 0 3.447-1.666 6.68-4.471 8.682L85.21 108.732a20.001 20.001 0 0 1-11.614 3.718h-12.61a20.001 20.001 0 0 1-11.467-3.614l-6.456-4.517h-.715A7.99 7.99 0 0 1 36 107.45h-4a8 8 0 0 1-8-8v-21a8 8 0 0 1 8-8h4a7.987 7.987 0 0 1 6.339 3.118C45.959 66.381 53.403 61.45 62 61.45h4.126a4.01 4.01 0 0 1-.126-1v-3.11c-10.114-1.052-18-9.603-18-19.996a4.895 4.895 0 0 1 4.895-4.894h1c2.09 0 4.105.319 6 .91-.62-5.736 1.56-11.664 6.539-16.057 1.97-1.738 5.163-1.738 7.132 0 4.979 4.393 7.158 10.32 6.539 16.057ZM70 25.462c2.299 3.722 2.299 8.256 0 11.978-2.299-3.722-2.299-8.256 0-11.978Zm13.521 15.264a12.125 12.125 0 0 1-9.042 8.447 12.125 12.125 0 0 1 9.042-8.447ZM44 96.374V82.937l7.073-3.487h16.109c.401 0 .727.325.727.727a5.454 5.454 0 0 1-5.454 5.453H58.41a4.41 4.41 0 0 0 0 8.82h19.41c2.992 0 5.908-.945 8.331-2.7l5.623-4.07C93.535 86.404 96 87.663 96 89.837c0 .861-.416 1.669-1.117 2.169l-14.318 10.213a12 12 0 0 1-6.968 2.231H60.986a12 12 0 0 1-6.88-2.168l-6.456-4.518a8 8 0 0 0-3.65-1.39Zm-8-14.68V78.45h-4v21h4V81.693ZM62 69.45c-2.64 0-5.108.73-7.215 2h12.397a8.727 8.727 0 0 1 8.727 8.727c0 2.265-.56 4.4-1.55 6.273h3.46a6.208 6.208 0 0 0 3.641-1.18l5.623-4.07c1.653-1.197 3.46-1.837 5.26-2.002-1.8-5.653-7.093-9.748-13.343-9.748H62Zm-5.521-28.724a12.125 12.125 0 0 0 9.042 8.447 12.125 12.125 0 0 0-9.042-8.447Z" clip-rule="evenodd"/></svg>